<?xml version="1.0" encoding="UTF-8"?>
<svg id="Layer_1" xmlns="http://www.w3.org/2000/svg" version="1.1" viewBox="0 0 36 36">
  <!-- Generator: Adobe Illustrator 29.3.1, SVG Export Plug-In . SVG Version: 2.1.0 Build 151)  -->
  <defs>
    <style>
      .st0 {
        fill: #010101;
      }

      .st1 {
        fill: #3a1710;
      }

      .st2 {
        fill: #45696f;
      }

      .st3 {
        fill: #e88f24;
      }

      .st4 {
        fill: #3a6665;
      }
    </style>
  </defs>
  <path class="st4" d="M17.9,27.2s3.6-2.7,3.8-4.1"/>
  <path class="st4" d="M16.9,30.3s-.7-3.1-3.1-4.6"/>
  <path class="st4" d="M17,30.2s3.2.2,5.2-1.2"/>
  <path class="st4" d="M16.3,31.6s2.9.1,4.4-.5"/>
  <path class="st4" d="M18.1,26s-3.6-4.8-3.7-7c0,0,2.5,3.3,3.7,3.8,0,0-4.2-5.2-4.5-6.8,0,0-.2-1.9.3-2.5,0,0,1.8,4.5,2.8,5.4,0,0-2.8-5.5-2.7-6.6,0,0,.1-1.4.5-1.5,0,0,2.1,5.6,2.8,6.2,0,0-2.5-5.8-2.4-7.1,0,0,.2-1.6.7-1.9,0,0,.6,2.8,2.1,4.3,0,0-1.8-4.3-1.5-5.1,0,0,.4-.8.7-.9,0,0,.8,3.6,1.4,4.8,0,0-1-4.2-.9-5.5,0,0,.3-.7.8-.6l.4,2.7-.2-3.5s.1-.7.7-.7l.2,2.7.2-3.9s.4-.4.6.2v3.3c0,0-1.7,20.3-1.7,20.3h-.3c0-.1,0-.1,0-.1Z"/>
  <path class="st4" d="M18.4,26s4.2-4.3,4.6-6.5c0,0-2.9,3-4.2,3.3,0,0,4.8-4.6,5.4-6.2,0,0,.4-1.9,0-2.5,0,0-2.3,4.2-3.5,5,0,0,3.5-5.1,3.5-6.2,0,0,0-1.4-.3-1.6,0,0-2.8,5.2-3.6,5.8,0,0,3.3-5.4,3.2-6.7,0,0,0-1.6-.5-2,0,0-1,2.7-2.6,4,0,0,2.3-4,2.1-4.9,0,0-.3-.9-.5-1,0,0-1.3,3.5-2,4.6,0,0,1.5-4,1.6-5.4,0,0-.2-.8-.7-.7l-.8,2.7.6-3.4s0-.8-.6-.8l-.5,2.7.3-3.9s-.3-.5-.6.2l-.3,3.2-1,20.3h.3c0,0,0,0,0,0Z"/>
  <path class="st4" d="M18.1,27.4s-3.7-4.9-4.2-7.3"/>
  <path class="st4" d="M17.3,28.6s-.6-2.4-3.2-4.7"/>
  <path class="st4" d="M17.3,29s3.8-1.2,5.3-2.6"/>
  <path class="st4" d="M16.2,31.9s-.1-2.2-2.6-4.3"/>
  <path class="st3" d="M17.2,13.7c.2.9.8,1.7,1.6,2,.8.3,1.8.3,2.8-1,0,0,1.5-2-1.3-5.5,0,0,0,0,0,0-.1-.2-.8-.8-2.3,1.2,0,0-1.1,1.6-.7,3.4h0Z"/>
  <path class="st1" d="M19.4,15.3s-2.3-.4-1.2-3.2c0,0,0-.2.1-.3.3-.4,1.1-1.6,2-1,0,0,.2.1.3.2.3.4,1.4,1.9.8,3.2-.3.5-.7.9-1.3,1-.2,0-.5,0-.7,0h0Z"/>
  <path class="st2" d="M19.4,15.2s-2.1-.4-1.1-2.9c0,0,0-.2.1-.3.2-.4,1-1.4,1.8-.9,0,0,.2.1.2.2.3.4,1.3,1.7.7,2.9-.2.5-.6.8-1.1.9-.2,0-.4,0-.6,0h0Z"/>
  <path class="st0" d="M13.5,35.2s6.3-3.6,6.3-23.3c0,0-.1,17.7-6.3,23.3Z"/>
  <path class="st0" d="M19.7,14s-.8.6-1.1,0c0-.1,0-.2,0-.3,0-.9.4-1.9,1.2-2.4,0,0,.4.3.4.4.3.3.5.7.6,1.1.1.4.2.9,0,1.3-.3.5-.8.3-1,0h0Z"/>
</svg>