<?xml version="1.0" encoding="UTF-8"?>
<svg id="Layer_1" xmlns="http://www.w3.org/2000/svg" version="1.1" viewBox="0 0 600 226">
  <!-- Generator: Adobe Illustrator 29.3.1, SVG Export Plug-In . SVG Version: 2.1.0 Build 151)  -->
  <defs>
    <style>
      .st0 {
        font-family: TTRicordiTrial-Nobili, 'TT Ricordi Trial';
        font-size: 60.8px;
      }

      .st0, .st1 {
        isolation: isolate;
      }

      .st2 {
        fill: #010101;
      }

      .st3 {
        fill: #3a1710;
      }

      .st4 {
        fill: #45696f;
      }

      .st5 {
        fill: #e88f24;
      }

      .st6 {
        fill: #3a6665;
      }
    </style>
  </defs>
  <g class="st1">
    <text class="st0" transform="translate(27.5 142.2)"><tspan x="0" y="0">M</tspan></text>
    <text class="st0" transform="translate(84.6 142.2)"><tspan x="0" y="0">A</tspan></text>
    <text class="st0" transform="translate(124.1 142.2)"><tspan x="0" y="0">THIOLI</tspan></text>
  </g>
  <g class="st1">
    <text class="st0" transform="translate(408.7 143.1)"><tspan x="0" y="0">GI</tspan></text>
    <text class="st0" transform="translate(478.6 143.1)"><tspan x="0" y="0">TA</tspan></text>
  </g>
  <g>
    <path class="st6" d="M378.1,154s16.5-12.4,17.3-18.8"/>
    <path class="st6" d="M373.2,168.2s-3.1-14.5-14.1-21.4"/>
    <path class="st6" d="M373.8,167.9s14.6.9,23.9-5.7"/>
    <path class="st6" d="M370.9,174.5s13.4.5,20.1-2.2"/>
    <path class="st6" d="M378.8,148.4s-16.7-22.2-17.3-32.5c0,0,11.6,15.3,17.1,17.6,0,0-19.2-23.8-21-31.5,0,0-.9-8.8,1.3-11.3,0,0,8.2,20.6,13.1,24.8,0,0-12.8-25.5-12.6-30.3,0,0,.6-6.4,2.3-7,0,0,9.5,25.6,13,28.6,0,0-11.8-26.9-10.9-32.6,0,0,.8-7.6,3.3-8.8,0,0,2.8,13.1,9.7,20.1,0,0-8.2-19.8-6.9-23.7,0,0,2-3.7,3-4.2,0,0,3.7,16.7,6.5,22.4,0,0-4.6-19.2-4.2-25.6,0,0,1.3-3.4,3.8-2.9l2,12.7-.7-16s.6-3.4,3.2-3.3l.8,12.5.9-18.2s1.8-1.9,2.6,1.1l-.4,15-7.2,93.6-1.3-.6h0Z"/>
    <path class="st6" d="M380.2,148.5s19.4-19.9,21.3-30c0,0-13.5,13.7-19.2,15.3,0,0,22-21.2,24.8-28.6,0,0,2-8.7.2-11.4,0,0-10.7,19.4-16.2,22.9,0,0,16-23.7,16.3-28.5,0,0,.3-6.5-1.4-7.2,0,0-12.7,24.2-16.5,26.7,0,0,15.1-25.2,14.9-30.9,0,0,.1-7.6-2.1-9.2,0,0-4.4,12.6-12.1,18.7,0,0,10.6-18.6,9.9-22.6,0,0-1.5-3.9-2.5-4.5,0,0-5.8,16.1-9.3,21.4,0,0,7-18.5,7.4-24.9,0,0-.8-3.5-3.4-3.3l-3.6,12.3,2.8-15.8s-.1-3.5-2.8-3.7l-2.4,12.3,1.5-18.2s-1.5-2.1-2.7.8l-1.5,15-4.7,93.8,1.4-.4h0Z"/>
    <path class="st6" d="M378.8,155s-17.2-22.7-19.6-33.6"/>
    <path class="st6" d="M375.5,160.4s-2.8-11-15-21.9"/>
    <path class="st6" d="M375.3,162.3s17.4-5.5,24.6-12.1"/>
    <path class="st6" d="M370.2,175.9s-.5-10.3-12-20"/>
    <path class="st5" d="M375,91.4c.9,4.1,3.6,7.7,7.6,9.3,3.5,1.4,8.3,1.5,12.7-4.8,0,0,6.7-9.3-5.9-25.3-.1-.1-.2-.3-.3-.4-.6-.7-3.7-3.7-10.6,5.7,0,0-5.2,7.3-3.4,15.6h0Z"/>
    <path class="st3" d="M385,99.2s-10.6-1.9-5.5-14.7c.2-.4.4-.9.7-1.3,1.2-2,5-7.3,9-4.6.5.3.8.7,1.2,1.1,1.5,1.8,6.6,8.7,3.5,14.8-1.2,2.3-3.3,4-5.8,4.7-1,.2-2.1.3-3.2,0h0Z"/>
    <path class="st4" d="M385,98.3s-9.6-1.7-4.9-13.3c.2-.4.4-.8.6-1.2,1.1-1.8,4.5-6.6,8.2-4.2.4.3.8.6,1.1,1,1.4,1.7,6,7.9,3.2,13.4-1,2.1-3,3.7-5.3,4.2-.9.2-1.9.3-2.9,0h0Z"/>
    <path class="st2" d="M357.9,191s29.3-16.6,29-107.5c0,0-.6,81.7-29,107.5Z"/>
    <path class="st2" d="M386.5,92.8c0,0-3.9,2.7-5,0-.2-.5-.2-1-.2-1.5,0-4.2,1.8-8.7,5.4-11,.3-.2,1.8,1.4,2,1.6,1.5,1.3,2.2,3.2,2.7,5.1.5,1.9.8,4.1-.2,5.9-1.2,2.1-3.6,1.2-4.7,0h0Z"/>
  </g>
</svg>