<?xml version="1.0" encoding="UTF-8"?>
<svg id="Layer_1" xmlns="http://www.w3.org/2000/svg" version="1.1" viewBox="0 0 600 226">
  <!-- Generator: Adobe Illustrator 29.3.1, SVG Export Plug-In . SVG Version: 2.1.0 Build 151)  -->
  <defs>
    <style>
      .st0 {
        fill: #010101;
      }

      .st1 {
        fill: #3a1710;
      }

      .st2 {
        fill: #45696f;
      }

      .st3 {
        isolation: isolate;
      }

      .st4 {
        fill: #e88f24;
      }

      .st5 {
        fill: #3a6665;
      }
    </style>
  </defs>
  <g class="st3">
    <g class="st3">
      <g class="st3">
        <path d="M35.6,142.1c.5-.4.8-1.1.9-2.1.1-1,.2-2.5.2-4.3v-36.5h.2l18,31.7c.6.9,1,1.4,1.4,1.4s.9-.5,1.3-1.4l17-31.7h.2v36.5c0,1.9,0,3.3.2,4.3.1,1,.5,1.7.9,2.1h0c0,.1-5.4.1-5.4.1h0c.5-.5.8-1.2.9-2.2.1-1,.2-2.5.2-4.3v-26.4c0-.8,0-1.3,0-1.5,0-.2-.2-.3-.5-.3s-.8.6-1.4,1.8l-14.7,27.5h-.2l-16-28.2c-.4-.8-.8-1.2-1-1.2s-.4.1-.5.3-.2.6-.2,1.1v25.7c0,1.8.1,3.2.3,4.2.2,1,.5,1.7,1,2.2.4.5,1.1.8,1.9,1v.2h-5Z"/>
      </g>
    </g>
    <g class="st3">
      <g class="st3">
        <path d="M87.9,142.1c.5-.4,1-.8,1.3-1.3s.8-1.4,1.4-2.6c.6-1.3,1.4-3.4,2.6-6.4l10.8-27.2c.3-.7.4-1.5.4-2.2s-.2-1.3-.7-1.6c-.5-.3-1.3-.5-2.6-.5h-4v-.6h9.4l13.4,35.3c1.6,4.1,2.8,6.5,3.8,7.1v.2h-7.4v-.2c1.4-.3,2.1-1,2.1-1.9s-.1-.9-.3-1.4l-3-8c-.4-1.1-.9-1.8-1.4-2.1-.5-.4-1.3-.5-2.4-.5h-13.7c-.8,0-1.5.2-1.9.5s-.9.8-1.2,1.6l-3.5,9.1c-.2.5-.2.9-.2,1.1,0,.9.5,1.4,1.6,1.8h0c0,.1-4.5.1-4.5.1h0ZM111.8,127.5c1.1,0,1.7-.3,1.7-1s0-.7-.2-1.1l-7.4-19.6c-.2-.6-.5-1-.8-1s-.6.4-1,1.3l-7.6,19.3c-.2.5-.3.9-.3,1.1,0,.4.1.6.4.8.3.1.7.2,1.3.2h13.9Z"/>
      </g>
    </g>
    <g class="st3">
      <g class="st3">
        <path d="M142.1,142.1c.5-.4.8-1.1.9-2.1.1-1,.2-2.5.2-4.3v-32.6c0-1.1-.2-1.8-.6-2.2-.4-.4-1.2-.6-2.2-.6h-5.4c-2.1,0-3.9.3-5.3,1-1.4.6-2.7,1.8-3.9,3.3l-1.2,1.6h-.2l2.1-6.5h38.6l-2.6,6.5h-.2v-1.3c.1-1.8-.3-3-1.4-3.6-1-.6-2.8-.9-5.3-.9h-6.6c-1.1,0-1.8.2-2.2.6-.4.4-.6,1.2-.6,2.2v32.6c0,1.9,0,3.3.2,4.3.1,1,.5,1.7.9,2.1h0c0,.1-5.4.1-5.4.1h0Z"/>
        <path d="M174,142.1c.5-.4.8-1.1.9-2.1.1-1,.2-2.5.2-4.3v-29.5c0-1.9,0-3.3-.2-4.3-.1-1-.5-1.7-.9-2.1h0c0-.1,5.4-.1,5.4-.1h0c-.5.5-.8,1.2-.9,2.2-.1,1-.2,2.5-.2,4.3v11c0,1.1.2,1.8.6,2.2.4.4,1.2.6,2.2.6h19.8c1.1,0,1.8-.2,2.2-.6.4-.4.6-1.2.6-2.2v-11c0-1.9,0-3.3-.2-4.3-.1-1-.5-1.7-.9-2.1h0c0-.1,5.4-.1,5.4-.1h0c-.5.5-.8,1.2-.9,2.2-.1,1-.2,2.5-.2,4.3v29.5c0,1.9,0,3.3.2,4.3.1,1,.5,1.7.9,2.1h0c0,.1-5.4.1-5.4.1h0c.5-.5.8-1.2.9-2.2.1-1,.2-2.5.2-4.3v-12.2c0-1.1-.2-1.8-.6-2.2-.4-.4-1.2-.6-2.2-.6h-19.8c-1.1,0-1.8.2-2.2.6-.4.4-.6,1.2-.6,2.2v12.2c0,1.9,0,3.3.2,4.3.1,1,.5,1.7.9,2.1h0c0,.1-5.4.1-5.4.1h0Z"/>
        <path d="M224.9,142.1c.5-.4.8-1.1.9-2.1.1-1,.2-2.5.2-4.3v-29.5c0-1.9,0-3.3-.2-4.3-.1-1-.5-1.7-.9-2.1h0c0-.1,5.2-.1,5.2-.1h0c-.5.5-.8,1.2-.9,2.2-.1,1-.2,2.5-.2,4.3v29.5c0,1.9,0,3.3.2,4.3.1,1,.5,1.7.9,2.1h0c0,.1-5.2.1-5.2.1h0Z"/>
        <path d="M253.2,140c-3.3-1.9-5.9-4.5-7.8-7.8-1.9-3.3-2.8-7.1-2.8-11.2s.9-8.1,2.8-11.4,4.4-5.9,7.7-7.8c3.2-1.8,6.8-2.8,10.8-2.8s7.7.9,11,2.8,5.9,4.5,7.8,7.8c1.9,3.3,2.8,7.1,2.8,11.2s-.9,8.1-2.8,11.4c-1.9,3.3-4.4,5.9-7.7,7.8-3.2,1.8-6.9,2.8-10.8,2.8s-7.7-.9-11-2.8ZM273.9,139.6c2.6-1.7,4.7-4.1,6.1-7.2,1.5-3.1,2.2-6.6,2.2-10.6s-.8-8-2.4-11.3c-1.6-3.4-3.9-6-6.7-8-2.9-1.9-6.1-2.9-9.8-2.9s-6.4.9-9,2.6-4.7,4.1-6.1,7.2c-1.5,3.1-2.2,6.6-2.2,10.6s.8,8,2.4,11.3c1.6,3.4,3.9,6,6.7,8,2.9,1.9,6.1,2.9,9.8,2.9s6.4-.9,9-2.6Z"/>
        <path d="M298,142.1c.5-.4.8-1.1.9-2.1.1-1,.2-2.5.2-4.3v-29.5c0-1.9,0-3.3-.2-4.3-.1-1-.5-1.7-.9-2.1h0c0-.1,5.3-.1,5.3-.1h0c-.5.5-.8,1.2-.9,2.2-.1,1-.2,2.5-.2,4.3v32.6c0,1.1.2,1.8.6,2.2.4.4,1.2.6,2.2.6h11c2.4,0,4.3-.3,5.6-1,1.3-.6,2.4-1.8,3.4-3.3h.2c0,0-.9,4.9-.9,4.9h-26.3Z"/>
        <path d="M334,142.1c.5-.4.8-1.1.9-2.1.1-1,.2-2.5.2-4.3v-29.5c0-1.9,0-3.3-.2-4.3-.1-1-.5-1.7-.9-2.1h0c0-.1,5.2-.1,5.2-.1h0c-.5.5-.8,1.2-.9,2.2-.1,1-.2,2.5-.2,4.3v29.5c0,1.9,0,3.3.2,4.3.1,1,.5,1.7.9,2.1h0c0,.1-5.2.1-5.2.1h0Z"/>
      </g>
    </g>
  </g>
  <g class="st3">
    <g class="st3">
      <g class="st3">
        <path d="M423.2,140.9c-3.3-1.9-5.9-4.5-7.8-7.8-1.9-3.3-2.8-7.1-2.8-11.3s.9-8.1,2.8-11.4,4.4-5.9,7.7-7.7c3.2-1.8,6.8-2.7,10.8-2.7s3.1,0,4.4.2c1.3.2,3,.4,5,.7,2.4.4,4.3.7,5.6.7l.4,4.9h-.2c-1.7-1.8-3.7-3.3-6.1-4.3-2.4-1.1-5.5-1.6-9.4-1.6s-6.6.9-9.2,2.6c-2.7,1.7-4.7,4.1-6.2,7.2-1.5,3.1-2.2,6.6-2.2,10.6s.8,8,2.4,11.4c1.6,3.4,3.9,6,6.7,7.9,2.9,1.9,6.1,2.9,9.8,2.9s7.1-.5,9.2-1.5c2.1-1,3.2-2.5,3.2-4.5v-4c0-1.8-.1-3.2-.3-4.2-.2-1-.5-1.7-1-2.2-.4-.5-1.1-.8-1.9-1v-.2h7.1c-.5.5-.8,1.2-.9,2.2-.1,1-.2,2.5-.2,4.3,0,3.6,0,6.2,0,7.6,0,1.5.2,2.6.3,3.3h0c-1,0-2.1-.2-3.3-.2s-2.6.1-4.6.4c-3.3.4-6.1.7-8.4.7-4.1,0-7.7-.9-11-2.8Z"/>
        <path d="M464.9,143c.5-.4.8-1.1.9-2.1.1-1,.2-2.5.2-4.3v-29.5c0-1.9,0-3.3-.2-4.3-.1-1-.5-1.7-.9-2.1h0c0-.1,5.2-.1,5.2-.1h0c-.5.5-.8,1.2-.9,2.2-.1,1-.2,2.5-.2,4.3v29.5c0,1.9,0,3.3.2,4.3.1,1,.5,1.7.9,2.1h0c0,.1-5.2.1-5.2.1h0Z"/>
      </g>
    </g>
    <g class="st3">
      <g class="st3">
        <path d="M496.6,143c.5-.4.8-1.1.9-2.1.1-1,.2-2.5.2-4.3v-32.6c0-1.1-.2-1.8-.6-2.2s-1.2-.6-2.2-.6h-5.4c-2.1,0-3.9.3-5.3,1-1.4.6-2.7,1.8-3.9,3.3l-1.2,1.6h-.2l2.1-6.5h38.6l-2.6,6.5h-.2v-1.3c.1-1.8-.3-3-1.4-3.6-1-.6-2.8-.9-5.3-.9h-6.6c-1.1,0-1.8.2-2.2.6s-.6,1.2-.6,2.2v32.6c0,1.9,0,3.3.2,4.3.1,1,.5,1.7.9,2.1h0c0,.1-5.4.1-5.4.1h0Z"/>
        <path d="M520.2,143c.5-.4,1-.8,1.3-1.3.4-.5.8-1.4,1.4-2.6.6-1.3,1.4-3.4,2.6-6.4l10.8-27.2c.3-.7.4-1.5.4-2.2s-.2-1.3-.7-1.6c-.5-.3-1.3-.5-2.6-.5h-4v-.6h9.4l13.4,35.3c1.6,4.1,2.8,6.5,3.8,7.1v.2h-7.4v-.2c1.4-.3,2.1-1,2.1-1.9s-.1-.9-.3-1.4l-3-8c-.4-1.1-.9-1.8-1.4-2.1-.5-.4-1.3-.5-2.4-.5h-13.7c-.8,0-1.5.2-1.9.5s-.9.8-1.2,1.6l-3.5,9.1c-.2.5-.2.9-.2,1.1,0,.9.5,1.4,1.6,1.8h0c0,.1-4.5.1-4.5.1h0ZM544.1,128.4c1.1,0,1.7-.3,1.7-1s0-.7-.2-1.1l-7.4-19.6c-.2-.6-.5-1-.8-1s-.6.4-1,1.3l-7.6,19.3c-.2.5-.3.9-.3,1.1,0,.4.1.6.4.8.3.1.7.2,1.3.2h13.9Z"/>
      </g>
    </g>
  </g>
  <g>
    <path class="st5" d="M378.1,154s16.5-12.4,17.3-18.8"/>
    <path class="st5" d="M373.2,168.2s-3.1-14.5-14.1-21.4"/>
    <path class="st5" d="M373.8,167.9s14.6.9,23.9-5.7"/>
    <path class="st5" d="M370.9,174.5s13.4.5,20.1-2.2"/>
    <path class="st5" d="M378.8,148.4s-16.7-22.2-17.3-32.5c0,0,11.6,15.3,17.1,17.6,0,0-19.2-23.8-21-31.5,0,0-.9-8.8,1.3-11.3,0,0,8.2,20.6,13.1,24.8,0,0-12.8-25.5-12.6-30.3,0,0,.6-6.4,2.3-7,0,0,9.5,25.6,13,28.6,0,0-11.8-26.9-10.9-32.6,0,0,.8-7.6,3.3-8.8,0,0,2.8,13.1,9.7,20.1,0,0-8.2-19.8-6.9-23.7,0,0,2-3.7,3-4.2,0,0,3.7,16.7,6.5,22.4,0,0-4.6-19.2-4.2-25.6,0,0,1.3-3.4,3.8-2.9l2,12.7-.7-16s.6-3.4,3.2-3.3l.8,12.5.9-18.2s1.8-1.9,2.6,1.1l-.4,15-7.2,93.6-1.3-.6h0Z"/>
    <path class="st5" d="M380.2,148.5s19.4-19.9,21.3-30c0,0-13.5,13.7-19.2,15.3,0,0,22-21.2,24.8-28.6,0,0,2-8.7.2-11.4,0,0-10.7,19.4-16.2,22.9,0,0,16-23.7,16.3-28.5,0,0,.3-6.5-1.4-7.2,0,0-12.7,24.2-16.5,26.7,0,0,15.1-25.2,14.9-30.9,0,0,.1-7.6-2.1-9.2,0,0-4.4,12.6-12.1,18.7,0,0,10.6-18.6,9.9-22.6,0,0-1.5-3.9-2.5-4.5,0,0-5.8,16.1-9.3,21.4,0,0,7-18.5,7.4-24.9,0,0-.8-3.5-3.4-3.3l-3.6,12.3,2.8-15.8s-.1-3.5-2.8-3.7l-2.4,12.3,1.5-18.2s-1.5-2.1-2.7.8l-1.5,15-4.7,93.8,1.4-.4h0Z"/>
    <path class="st5" d="M378.8,155s-17.2-22.7-19.6-33.6"/>
    <path class="st5" d="M375.5,160.4s-2.8-11-15-21.9"/>
    <path class="st5" d="M375.3,162.3s17.4-5.5,24.6-12.1"/>
    <path class="st5" d="M370.2,175.9s-.5-10.3-12-20"/>
    <path class="st4" d="M375,91.4c.9,4.1,3.6,7.7,7.6,9.3,3.5,1.4,8.3,1.5,12.7-4.8,0,0,6.7-9.3-5.9-25.3-.1,0-.2-.3-.3-.4-.6-.7-3.7-3.7-10.6,5.7,0,0-5.2,7.3-3.4,15.6h-.1Z"/>
    <path class="st1" d="M385,99.2s-10.6-1.9-5.5-14.7c.2-.4.4-.9.7-1.3,1.2-2,5-7.3,9-4.6.5.3.8.7,1.2,1.1,1.5,1.8,6.6,8.7,3.5,14.8-1.2,2.3-3.3,4-5.8,4.7-1,.2-2.1.3-3.2,0h0Z"/>
    <path class="st2" d="M385,98.3s-9.6-1.7-4.9-13.3c.2-.4.4-.8.6-1.2,1.1-1.8,4.5-6.6,8.2-4.2.4.3.8.6,1.1,1,1.4,1.7,6,7.9,3.2,13.4-1,2.1-3,3.7-5.3,4.2-.9.2-1.9.3-2.9,0h0Z"/>
    <path class="st0" d="M357.9,191s29.3-16.6,29-107.5c0,0-.6,81.7-29,107.5Z"/>
    <path class="st0" d="M386.5,92.8s-3.9,2.7-5,0c-.2-.5-.2-1-.2-1.5,0-4.2,1.8-8.7,5.4-11,.3-.2,1.8,1.4,2,1.6,1.5,1.3,2.2,3.2,2.7,5.1s.8,4.1-.2,5.9c-1.2,2.1-3.6,1.2-4.7,0h0Z"/>
  </g>
</svg>