<?xml version="1.0" encoding="UTF-8"?>
<svg id="Layer_1" data-name="Layer 1" xmlns="http://www.w3.org/2000/svg" viewBox="0 0 600 226">
  <defs>
    <style>
      .cls-1 {
        fill: #fff;
        font-family: TTRicordiTrial-Nobili, 'TT Ricordi Trial';
        font-size: 60.78px;
      }

      .cls-2 {
        fill: #010101;
      }

      .cls-3 {
        fill: #3a1710;
      }

      .cls-4 {
        fill: #45696f;
      }

      .cls-5 {
        fill: #e88f24;
      }

      .cls-6 {
        fill: #3a6665;
      }

      .cls-7 {
        letter-spacing: -.05em;
      }
    </style>
  </defs>
  <text class="cls-1" transform="translate(27.55 142.16)"><tspan x="0" y="0">M</tspan><tspan class="cls-7" x="57.07" y="0">A</tspan><tspan x="96.58" y="0">THIOLI</tspan></text>
  <text class="cls-1" transform="translate(408.66 143.06)"><tspan x="0" y="0">GI</tspan><tspan class="cls-7" x="69.95" y="0">TA</tspan></text>
  <g>
    <path class="cls-6" d="M378.08,154.03s16.53-12.39,17.33-18.82"/>
    <path class="cls-6" d="M373.22,168.21s-3.1-14.46-14.12-21.35"/>
    <path class="cls-6" d="M373.78,167.87s14.63.86,23.93-5.68"/>
    <path class="cls-6" d="M370.86,174.48s13.43.52,20.14-2.24"/>
    <path class="cls-6" d="M378.77,148.38s-16.71-22.15-17.27-32.5c0,0,11.65,15.32,17.09,17.57,0,0-19.17-23.84-20.98-31.48,0,0-.88-8.84,1.27-11.35,0,0,8.17,20.6,13.11,24.81,0,0-12.83-25.49-12.58-30.31,0,0,.56-6.44,2.3-6.98,0,0,9.55,25.64,12.99,28.6,0,0-11.75-26.86-10.87-32.58,0,0,.83-7.55,3.28-8.85,0,0,2.77,13.07,9.66,20.08,0,0-8.17-19.8-6.89-23.66,0,0,1.96-3.72,3.01-4.15,0,0,3.69,16.66,6.48,22.38,0,0-4.63-19.22-4.19-25.63,0,0,1.26-3.4,3.77-2.86l1.98,12.7-.72-15.99s.57-3.43,3.21-3.34l.84,12.54.85-18.23s1.79-1.89,2.6,1.12l-.39,15.03-7.24,93.63-1.3-.56Z"/>
    <path class="cls-6" d="M380.24,148.46s19.39-19.85,21.27-30.04c0,0-13.51,13.71-19.19,15.25,0,0,22.05-21.21,24.82-28.56,0,0,2-8.66.18-11.42,0,0-10.73,19.39-16.16,22.94,0,0,15.97-23.65,16.34-28.46,0,0,.26-6.46-1.4-7.22,0,0-12.74,24.22-16.52,26.72,0,0,15.07-25.15,14.93-30.93,0,0,.14-7.59-2.13-9.19,0,0-4.41,12.61-12.13,18.68,0,0,10.63-18.6,9.85-22.59,0,0-1.47-3.94-2.46-4.5,0,0-5.78,16.06-9.27,21.37,0,0,7.04-18.47,7.41-24.89,0,0-.82-3.54-3.38-3.31l-3.58,12.34,2.75-15.76s-.13-3.47-2.76-3.72l-2.43,12.34,1.48-18.19s-1.53-2.1-2.72.78l-1.52,14.96-4.73,93.79,1.36-.39Z"/>
    <path class="cls-6" d="M378.83,155.03s-17.21-22.72-19.62-33.57"/>
    <path class="cls-6" d="M375.46,160.4s-2.75-11.02-14.98-21.86"/>
    <path class="cls-6" d="M375.28,162.26s17.39-5.51,24.62-12.05"/>
    <path class="cls-6" d="M370.17,175.86s-.49-10.32-11.98-19.99"/>
    <path class="cls-5" d="M374.96,91.37c.87,4.14,3.65,7.66,7.56,9.26,3.51,1.43,8.29,1.5,12.73-4.75,0,0,6.73-9.27-5.93-25.34-.11-.14-.23-.27-.34-.41-.59-.74-3.73-3.72-10.57,5.67,0,0-5.17,7.32-3.44,15.57Z"/>
    <path class="cls-3" d="M385,99.16s-10.65-1.93-5.46-14.7c.18-.45.4-.89.66-1.31,1.21-1.98,4.98-7.35,9.04-4.59.45.3.84.68,1.18,1.1,1.51,1.83,6.61,8.71,3.55,14.79-1.17,2.32-3.3,4.04-5.82,4.66-.98.24-2.08.33-3.17.05Z"/>
    <path class="cls-4" d="M384.96,98.31s-9.63-1.74-4.94-13.3c.17-.41.37-.8.6-1.18,1.09-1.79,4.51-6.64,8.18-4.16.4.27.76.62,1.07.99,1.36,1.65,5.98,7.88,3.22,13.38-1.05,2.1-2.98,3.65-5.26,4.21-.89.22-1.88.3-2.87.05Z"/>
    <path class="cls-2" d="M357.88,191s29.31-16.55,28.96-107.51c0,0-.63,81.72-28.96,107.51Z"/>
    <path class="cls-2" d="M386.47,92.77c.05.05-3.91,2.68-4.97.07-.2-.49-.21-1.02-.21-1.54,0-4.21,1.84-8.65,5.36-11,.27-.18,1.82,1.44,2.01,1.63,1.45,1.34,2.18,3.2,2.72,5.06.55,1.88.84,4.11-.19,5.89-1.23,2.13-3.58,1.25-4.72-.1Z"/>
  </g>
</svg>